<svg xmlns="http://www.w3.org/2000/svg" xmlns:xlink="http://www.w3.org/1999/xlink" width="164.378" height="104.354" xmlns:v="https://vecta.io/nano"><defs><path id="A" d="M0 0h164.378v104.354H0z"/></defs><clipPath id="B"><use xlink:href="#A"/></clipPath><path clip-path="url(#B)" d="M64.444.003c2.945 0 5.332 2.523 5.332 5.636s-2.387 5.635-5.332 5.635-5.332-2.524-5.332-5.635S61.499.003 64.444.003M52.106 21.147c0 3.106-2.383 5.626-5.32 5.626s-5.317-2.52-5.317-5.626c0-3.101 2.381-5.618 5.317-5.618s5.32 2.518 5.32 5.618m17.736-1.562c0 3.181-2.434 5.748-5.438 5.748-3.011 0-5.445-2.567-5.445-5.748 0-3.174 2.435-5.755 5.445-5.755 3.004.001 5.438 2.582 5.438 5.755m17.605 1.522c0 3.187-2.451 5.771-5.468 5.771-3.011 0-5.461-2.585-5.461-5.771s2.45-5.778 5.461-5.778c3.017 0 5.468 2.588 5.468 5.778m-17.616 11.95c0 3.176-2.431 5.754-5.438 5.754s-5.445-2.578-5.445-5.754 2.437-5.754 5.445-5.754 5.438 2.579 5.438 5.754m13.263.798c0 3.227-2.473 5.834-5.521 5.834-3.041 0-5.516-2.607-5.516-5.834 0-3.22 2.475-5.829 5.516-5.829 3.048 0 5.521 2.61 5.521 5.829m-31.861-5.6c2.919 0 5.286 2.501 5.286 5.586s-2.367 5.586-5.286 5.586-5.286-2.5-5.286-5.586 2.367-5.586 5.286-5.586" fill="#857e72"/><path clip-path="url(#B)" d="M0 53.753c0-1.658 14.592-1.791 14.926-.397l5.473 31.635h.399c1.657-5.506 11.84-31.635 11.84-31.635.598-1.394 13.931-1.326 13.931.199 0 .53-.135 1.094-.397 1.69l-20.697 48.063c-.597 1.393-13.997 1.393-14.328 0L.199 55.246C.066 54.451 0 53.953 0 53.753m82.628 8.235l.579-7.842c.891-1.787 13.938-.862 14.004.289.046.792-.355 5.714-.355 5.714.039-3.704 9.067-6.559 13.446-6.559 1.321 0 1.925-.116 2.51.074.795.262-1.042 12.269-1.947 12.543-1.713.521-3.069.359-5.884 1.083-3.704.952-7.894 3.683-8.763 6.052l-2.877 29.381c-.197 2.123-15.053 1.523-14.726.099l4.013-40.834m56.178-30.324l-4.18 40.589.398.102 13.93-19.197c.997-1.26 15.424-1.424 15.424-.497 0 .466-.396 1.16-1.192 2.09l-15.822 20.888 13.534 25.674c.33.663.766 1.671.497 2.13-.468.795-15.125 1.161-15.724-.102L134.23 80.117l-.398.099-2.289 22.342c-.198 2.122-14.727 2.122-14.727 0l7.266-70.892c.195-2.125 14.724-2.125 14.724-.002M70.71 54.351c.2-1.992-14.527-2.022-14.727.101L54.41 70.43l-3.314 32.125c0 2.122 14.529 2.122 14.727 0l2.288-22.342.796-7.961.739-7.387 1.064-10.514" fill="#3c362f"/></svg>